<?xml version="1.0" standalone="no"?>
<!DOCTYPE svg PUBLIC "-//W3C//DTD SVG 20010904//EN"
 "http://www.w3.org/TR/2001/REC-SVG-20010904/DTD/svg10.dtd">
<svg version="1.0" xmlns="http://www.w3.org/2000/svg"
 width="500.000000pt" height="500.000000pt" viewBox="0 0 500.000000 500.000000"
 preserveAspectRatio="xMidYMid meet">
<metadata>
Created by potrace 1.14, written by Peter Selinger 2001-2017
</metadata>
<g transform="translate(0.000000,500.000000) scale(0.100000,-0.100000)"
fill="#000000" stroke="none">
<path d="M0 2500 l0 -2500 2500 0 2500 0 0 2500 0 2500 -2500 0 -2500 0 0
-2500z m1799 533 c-3 -59 -12 -68 -77 -74 -33 -3 -68 -12 -77 -19 -21 -18 -19
-64 14 -343 16 -133 33 -295 37 -360 l6 -118 38 83 c20 46 112 218 203 382
104 186 167 310 167 328 0 34 -24 48 -84 48 -41 0 -46 2 -46 23 0 12 3 32 6
45 6 22 7 22 225 22 238 0 225 4 213 -59 -6 -28 -10 -31 -46 -31 -64 0 -93
-22 -146 -113 -26 -45 -164 -290 -307 -544 l-258 -463 -86 0 -86 0 -64 468
c-88 646 -80 602 -107 629 -15 15 -35 23 -59 23 -30 0 -35 3 -35 23 0 12 3 32
6 45 l6 22 279 0 c259 0 279 -1 278 -17z m1938 -6 c67 -23 131 -72 157 -122
32 -61 29 -183 -6 -250 -42 -81 -106 -131 -213 -165 l-40 -13 48 -14 c108 -31
177 -147 164 -274 -18 -164 -103 -266 -270 -322 -58 -20 -89 -21 -450 -25
l-388 -3 7 28 c13 62 14 63 50 63 48 0 99 23 119 54 18 28 207 896 203 931 -4
26 -43 45 -97 45 -43 0 -43 0 -37 31 3 17 6 38 6 46 0 23 674 14 747 -10z
m-1192 -943 c36 -17 65 -65 65 -108 0 -45 -30 -105 -65 -126 -43 -27 -128 -27
-171 -1 -55 33 -68 126 -28 189 37 58 130 79 199 46z"/>
<path d="M3396 2934 c-3 -11 -22 -98 -41 -194 -20 -96 -38 -183 -41 -192 -5
-16 3 -18 76 -18 90 0 139 15 183 58 55 52 74 198 38 279 -24 52 -64 74 -147
81 -54 4 -63 2 -68 -14z"/>
<path d="M3285 2408 c-8 -25 -95 -444 -95 -457 0 -11 19 -13 99 -8 118 7 170
26 215 79 42 49 60 112 60 208 0 143 -49 189 -197 190 -53 0 -79 -4 -82 -12z"/>
</g>
</svg>
